<svg xmlns="http://www.w3.org/2000/svg" version="1.0" width="1000.000000pt" height="1000.000000pt" viewBox="0 0 1000.000000 1000.000000" preserveAspectRatio="xMidYMid meet">

<g transform="translate(0.000000,1000.000000) scale(0.100000,-0.100000)" fill="#fafafa" stroke="none">
<path d="M4735 9993 c-723 -44 -1366 -215 -1985 -528 -1287 -651 -2228 -1817 -2590 -3210 -98 -378 -146 -720 -156 -1125 -37 -1373 489 -2693 1461 -3665 1253 -1252 3077 -1749 4790 -1305 671 174 1328 503 1867 934 842 676 1446 1607 1718 2651 341 1308 129 2721 -580 3872 -918 1490 -2548 2396 -4285 2381 -104 -1 -212 -3 -240 -5z m565 -243 c944 -64 1808 -384 2555 -945 189 -142 281 -221 459 -395 421 -412 719 -823 972 -1345 188 -388 323 -799 394 -1197 l21 -118 -78 -77 c-44 -43 -92 -95 -107 -116 -24 -31 -31 -35 -44 -25 -13 11 -14 10 -8 -10 6 -17 4 -21 -8 -16 -13 5 -16 -2 -16 -35 0 -23 5 -41 10 -41 16 0 12 -27 -6 -34 -8 -3 -12 -10 -9 -16 4 -6 11 -8 16 -5 5 4 9 -1 9 -10 0 -15 -76 -55 -105 -55 -8 0 -21 -7 -30 -16 -14 -14 -20 -15 -40 -4 -13 7 -21 18 -19 25 3 7 -1 15 -10 18 -8 3 -17 -1 -20 -9 -6 -16 -36 -19 -36 -4 0 6 -10 10 -22 9 l-23 0 23 -11 c24 -12 28 -23 12 -33 -18 -11 -11 -37 8 -31 26 8 55 -15 46 -37 -3 -10 -33 -31 -65 -48 -33 -16 -58 -33 -58 -37 4 -23 -6 -30 -53 -36 -32 -5 -54 -3 -58 3 -11 19 -64 -9 -80 -43 -10 -21 -22 -31 -38 -31 -12 0 -26 -6 -31 -13 -4 -7 -25 -15 -46 -18 -34 -4 -37 -3 -32 17 5 18 2 20 -18 15 -29 -7 -55 2 -55 19 0 7 -7 18 -15 25 -13 10 -19 10 -33 -4 -10 -9 -23 -16 -28 -16 -5 0 -18 -10 -28 -21 -25 -30 -45 -10 -29 31 10 27 10 28 -9 17 -10 -7 -28 -31 -38 -54 -10 -24 -24 -43 -29 -43 -6 0 -11 -7 -11 -15 0 -9 -7 -27 -16 -40 -12 -18 -13 -25 -4 -25 16 0 7 -93 -9 -98 -19 -6 -12 -20 11 -24 36 -5 33 -32 -4 -46 l-33 -13 23 -16 c30 -21 28 -37 -4 -29 -21 6 -25 4 -21 -8 4 -10 1 -13 -7 -10 -8 3 -17 1 -21 -5 -3 -6 -21 -11 -40 -11 -23 0 -39 -7 -48 -20 -12 -17 -21 -19 -60 -14 -30 4 -47 12 -47 21 0 42 -84 -60 -126 -152 -25 -55 -53 -85 -80 -85 -12 0 -27 -6 -33 -14 -7 -8 -28 -17 -49 -21 -27 -5 -56 -25 -107 -73 -39 -37 -105 -86 -147 -109 -43 -24 -83 -53 -89 -65 -10 -20 -8 -20 18 5 16 15 46 30 66 34 34 5 37 4 37 -19 0 -28 -24 -63 -84 -118 -58 -55 -41 -57 29 -4 64 48 82 53 92 28 7 -20 -54 -76 -74 -69 -8 3 -13 -5 -13 -20 0 -15 -7 -26 -20 -30 -11 -3 -20 -10 -20 -15 0 -5 -9 -11 -19 -15 -10 -3 -21 -14 -24 -25 -6 -22 -64 -41 -89 -29 -36 19 -91 -1 -59 -21 8 -5 1 -17 -24 -38 -41 -37 -61 -42 -45 -13 5 11 7 27 4 36 -4 10 1 22 12 30 11 8 14 14 7 15 -7 0 -13 9 -13 20 0 11 -6 20 -12 20 -7 0 -1 8 15 18 15 10 40 33 56 51 16 18 35 33 43 35 8 1 38 17 66 35 58 37 55 55 -11 57 -27 0 -46 8 -66 28 -16 16 -34 27 -40 25 -11 -4 40 -64 60 -71 21 -7 0 -27 -54 -54 -29 -15 -68 -43 -87 -63 -46 -48 -105 -92 -155 -114 -22 -10 -49 -27 -60 -37 -12 -11 -42 -21 -74 -25 -30 -4 -64 -11 -75 -17 -10 -6 -51 -11 -90 -12 -78 -2 -97 -8 -139 -43 -16 -13 -37 -23 -48 -23 -11 0 -30 -6 -42 -14 -12 -7 -52 -19 -90 -26 -56 -10 -71 -18 -90 -42 -12 -16 -43 -50 -68 -74 -26 -25 -57 -67 -70 -94 -13 -27 -29 -52 -36 -54 -14 -6 -53 44 -53 67 0 12 -28 69 -46 95 -1 2 -13 -2 -26 -9 -25 -13 -51 -40 -76 -77 -19 -30 -57 -48 -106 -51 -22 -2 -51 -8 -65 -13 -35 -15 -108 -20 -115 -9 -3 5 -31 7 -62 5 -30 -2 -63 0 -71 5 -10 5 -29 3 -51 -6 -19 -8 -41 -12 -48 -9 -8 3 -14 -1 -14 -9 0 -8 5 -15 10 -15 6 0 10 -3 10 -7 0 -5 -30 -6 -67 -3 -47 3 -67 9 -66 17 2 9 -10 13 -36 13 -21 0 -54 6 -72 14 -33 14 -173 15 -186 2 -9 -8 0 -15 24 -19 12 -1 27 -8 35 -15 24 -19 262 -74 285 -65 7 3 13 0 13 -6 0 -19 23 -12 52 16 26 25 32 26 125 25 54 0 111 -5 126 -11 52 -20 157 17 157 56 0 20 18 16 55 -13 19 -14 38 -23 44 -20 5 3 23 31 40 61 60 106 92 95 106 -36 l10 -93 34 -8 c43 -12 61 4 100 88 24 52 38 69 77 91 26 16 74 49 107 76 33 26 65 47 71 47 6 0 31 -7 56 -16 25 -9 52 -18 60 -21 33 -11 123 -8 141 5 11 7 19 25 19 41 0 23 4 27 28 25 15 -1 38 -2 51 -3 35 -2 14 -20 -29 -25 -19 -3 -37 -5 -39 -5 -2 -1 2 -8 9 -16 14 -17 5 -35 -16 -35 -8 0 -13 -4 -9 -9 3 -6 13 -10 23 -9 75 1 172 -41 172 -75 0 -18 1 -18 25 -3 14 9 26 13 26 9 4 -26 -7 -52 -41 -97 -21 -28 -59 -95 -84 -149 -40 -85 -51 -100 -81 -113 -19 -8 -41 -27 -50 -44 -9 -17 -22 -30 -30 -30 -19 0 -19 11 0 36 28 37 15 37 -20 0 -45 -48 -131 -106 -157 -106 -11 0 -32 -12 -46 -28 -26 -26 -52 -42 -97 -57 l-20 -7 20 -8 c11 -5 43 -9 72 -9 63 -1 113 22 168 79 21 22 47 40 56 40 10 0 20 6 22 13 4 9 8 8 16 -3 9 -13 11 -12 11 5 1 28 45 58 73 50 13 -4 17 -3 10 2 -9 6 -3 16 20 34 18 14 39 28 48 31 10 4 33 48 53 101 27 67 45 100 66 115 16 12 33 22 39 22 5 0 12 11 15 25 4 14 11 25 16 25 6 0 10 5 10 10 0 15 17 35 83 102 48 48 61 56 75 47 14 -9 30 -5 72 15 29 14 62 26 71 26 22 0 79 47 79 66 0 8 4 14 8 14 4 0 25 16 45 35 20 19 42 35 48 35 7 0 17 7 23 15 6 9 23 17 37 19 34 3 88 42 99 71 6 17 15 22 28 18 15 -4 78 26 110 52 1 1 4 17 7 35 2 17 12 38 22 46 17 13 17 13 -1 14 -13 0 -16 4 -11 17 4 10 10 31 13 48 5 30 29 62 39 52 13 -13 36 27 37 64 1 39 9 49 22 28 4 -8 9 -8 17 0 16 16 37 13 37 -5 0 -8 5 -12 10 -9 6 3 10 30 10 58 0 29 5 59 10 67 8 13 10 13 10 -1 0 -15 19 -29 39 -29 4 0 20 29 36 65 27 59 33 66 65 71 19 3 43 8 53 11 9 2 17 -1 17 -8 0 -10 3 -10 12 -1 19 19 30 14 23 -9 -8 -25 -13 -25 115 10 41 11 76 21 78 21 1 0 2 -22 2 -50 0 -27 -4 -50 -10 -50 -5 0 -10 -6 -10 -12 0 -17 -63 -88 -77 -88 -14 0 -22 -113 -8 -122 6 -5 4 -24 -8 -55 -10 -26 -19 -55 -19 -63 0 -8 -5 -20 -10 -26 -5 -7 -9 -51 -10 -99 -1 -62 -5 -88 -15 -92 -23 -9 -14 -20 12 -15 14 2 25 0 25 -6 0 -5 -11 -12 -25 -14 -14 -3 -25 -1 -25 3 0 24 -27 4 -44 -31 -13 -27 -27 -41 -46 -45 -15 -3 -43 -24 -64 -45 -24 -26 -50 -42 -73 -46 -49 -9 -80 -27 -75 -42 2 -7 -6 -12 -22 -12 -15 0 -26 6 -26 14 0 8 -17 16 -47 20 -116 16 -215 75 -242 144 -16 39 -34 43 -25 4 11 -45 24 -63 54 -74 16 -5 36 -20 45 -34 8 -13 21 -24 29 -24 7 0 21 -9 31 -20 9 -10 20 -18 24 -17 3 0 17 -5 31 -13 14 -8 35 -13 47 -11 11 1 24 -3 28 -8 3 -6 15 -11 26 -11 10 0 19 -5 19 -11 0 -6 -7 -9 -15 -6 -8 4 -17 2 -20 -3 -4 -7 -13 -6 -25 0 -26 14 -37 13 -44 -6 -8 -22 21 -43 54 -39 14 1 31 -2 38 -8 9 -7 16 -7 24 1 14 14 68 16 68 3 0 -5 -7 -14 -15 -21 -8 -7 -15 -19 -15 -28 0 -12 -9 -13 -42 -9 l-43 6 25 -19 c31 -24 36 -24 58 -2 10 10 26 21 35 25 10 4 22 18 27 31 8 22 15 25 47 23 28 -1 38 2 38 13 0 11 -10 15 -37 13 -40 -1 -47 7 -23 27 8 7 15 19 15 26 0 8 7 14 15 14 8 0 12 6 9 14 -7 18 36 58 54 51 8 -3 24 -8 37 -11 15 -4 22 -11 18 -20 -3 -8 1 -14 11 -14 11 0 16 9 16 31 0 21 9 40 26 55 31 29 49 32 34 5 -7 -13 -7 -22 0 -26 5 -3 10 -1 10 6 0 7 16 27 35 45 32 29 35 36 35 88 0 36 -4 55 -10 51 -5 -3 -10 -16 -10 -29 0 -12 -6 -23 -14 -23 -8 0 -13 11 -12 31 2 37 22 76 39 76 7 0 21 19 31 43 48 107 70 147 82 147 6 0 14 7 18 15 3 8 1 15 -5 15 -6 0 -3 7 5 16 28 28 39 54 22 54 -24 0 -27 16 -6 38 22 23 26 47 10 57 -16 10 -11 34 14 68 26 34 28 76 7 130 -6 16 -11 69 -11 118 0 85 10 125 33 141 7 4 6 12 -3 24 -13 15 -11 20 20 45 40 34 76 38 85 9 7 -23 25 -27 25 -6 0 10 16 13 66 12 37 -1 68 3 72 9 8 12 74 45 90 45 5 0 15 6 21 14 7 8 20 12 31 9 18 -5 68 27 143 89 58 49 190 107 302 133 16 3 33 12 37 18 5 8 8 7 8 -3 0 -8 16 -29 36 -45 l36 -30 -6 -165 c-37 -898 -297 -1709 -789 -2456 -318 -484 -761 -937 -1252 -1280 -400 -280 -891 -517 -1355 -655 -942 -279 -1936 -263 -2865 46 -582 193 -1086 474 -1565 874 -152 126 -463 437 -582 581 -646 783 -1014 1676 -1098 2665 -15 180 -12 644 5 840 75 855 404 1709 922 2398 293 390 666 755 1064 1040 715 511 1595 819 2489 870 132 8 437 6 570 -3z m4420 -4121 c0 -6 -4 -7 -10 -4 -5 3 -10 11 -10 16 0 6 5 7 10 4 6 -3 10 -11 10 -16z m0 -48 c0 -20 -25 -47 -33 -34 -7 12 11 53 23 53 5 0 10 -8 10 -19z m-50 -46 c8 -22 13 -24 29 -15 26 13 31 4 38 -65 5 -50 4 -55 -14 -55 -10 0 -24 -5 -31 -12 -9 -9 -12 -8 -12 5 0 9 -6 14 -13 11 -19 -7 -50 32 -44 55 3 14 -2 21 -19 25 -30 8 -34 46 -5 46 10 0 24 7 31 15 18 22 29 19 40 -10z m-160 -59 c0 -3 -4 -8 -10 -11 -5 -3 -10 -1 -10 4 0 6 5 11 10 11 6 0 10 -2 10 -4z m77 -48 c-3 -8 -6 -5 -6 6 -1 11 2 17 5 13 3 -3 4 -12 1 -19z m153 -78 c0 -5 -5 -10 -11 -10 -5 0 -7 5 -4 10 3 6 8 10 11 10 2 0 4 -4 4 -10z m-920 -569 c0 -5 -13 -19 -30 -31 -17 -12 -30 -30 -30 -43 0 -18 -2 -19 -10 -7 -22 34 -5 72 36 83 31 8 34 7 34 -2z m-920 -530 c0 -24 26 -47 33 -29 2 7 7 10 11 7 13 -12 -23 -79 -46 -88 -13 -5 -48 -29 -79 -55 -31 -25 -59 -46 -62 -46 -3 0 -7 26 -9 58 -3 48 -6 57 -20 54 -10 -2 -18 2 -18 8 0 14 33 13 48 -2 9 -9 12 -9 12 0 0 16 101 112 117 112 7 0 13 -8 13 -19z m-105 -31 c-3 -5 -10 -10 -16 -10 -5 0 -9 5 -9 10 0 6 7 10 16 10 8 0 12 -4 9 -10z m935 -34 c-17 -22 -32 -9 -18 14 8 12 16 16 22 10 6 -6 4 -15 -4 -24z m-1508 -418 c-7 -7 -12 -8 -12 -2 0 14 12 26 19 19 2 -3 -1 -11 -7 -17z m496 -15 c-4 -23 -98 -88 -98 -68 0 8 9 19 20 25 11 6 20 16 20 23 0 7 10 17 23 23 32 17 39 16 35 -3z m-518 -82 c0 -6 -10 -17 -22 -25 -16 -11 -25 -13 -35 -4 -19 16 -16 26 10 31 39 8 47 7 47 -2z m-106 -32 c-9 -15 -34 -10 -28 5 3 8 12 12 20 9 8 -3 11 -9 8 -14z m-84 -24 c0 -8 -4 -15 -10 -15 -5 0 -10 7 -10 15 0 8 5 15 10 15 6 0 10 -7 10 -15z m35 5 c3 -5 1 -10 -4 -10 -6 0 -11 5 -11 10 0 6 2 10 4 10 3 0 8 -4 11 -10z m55 -10 c0 -5 -4 -10 -10 -10 -5 0 -10 5 -10 10 0 6 5 10 10 10 6 0 10 -4 10 -10z m-112 -82 c-5 -15 -58 -24 -58 -9 0 9 20 17 48 20 8 0 12 -5 10 -11z m-661 -165 c-8 -10 -17 -29 -19 -42 -4 -33 -24 -38 -23 -6 0 16 10 34 25 45 31 24 38 25 17 3z m-987 -13 c0 -5 -4 -10 -10 -10 -5 0 -10 5 -10 10 0 6 5 10 10 10 6 0 10 -4 10 -10z m1722 -122 c-7 -7 -12 -8 -12 -2 0 14 12 26 19 19 2 -3 -1 -11 -7 -17z" fill="#fafafa"/>
<path d="M2900 8235 c-11 -14 -39 -15 -179 -12 -91 2 -176 7 -188 11 l-23 8 0 -341 0 -341 23 0 c31 0 47 18 47 52 l0 28 155 0 155 0 0 -35 c0 -43 22 -55 50 -30 19 17 20 33 20 298 0 253 2 282 18 300 16 18 16 20 -18 48 -40 34 -43 34 -60 14z m-10 -165 l0 -110 -155 0 -155 0 0 110 0 110 155 0 155 0 0 -110z m-5 -270 l0 -115 -152 -3 -153 -3 0 121 0 121 153 -3 152 -3 0 -115z" fill="#fafafa"/>
<path d="M2870 7213 c-80 -31 -316 -80 -430 -90 -65 -6 -85 -11 -85 -23 0 -12 16 -15 80 -16 72 -1 80 -4 83 -21 2 -11 28 -41 58 -68 30 -26 67 -65 81 -86 16 -25 33 -39 47 -39 20 0 20 -1 -4 -25 -23 -23 -34 -25 -163 -31 -76 -4 -140 -11 -143 -15 -6 -10 26 -89 36 -89 4 0 15 9 25 20 14 15 31 20 72 20 l54 0 -18 -32 c-21 -37 -173 -195 -218 -226 -22 -15 -27 -24 -19 -32 20 -21 123 45 240 153 33 30 69 60 82 66 23 12 23 14 7 32 -10 10 -26 21 -36 24 -34 11 -20 22 33 28 36 5 54 3 60 -6 4 -6 7 -79 7 -162 -1 -189 -2 -175 19 -175 38 0 42 19 42 181 0 113 3 159 13 167 6 5 44 13 82 17 39 3 87 8 107 11 36 5 38 4 68 -45 32 -52 62 -66 74 -35 11 29 6 50 -21 87 -31 40 -151 137 -170 137 -22 0 -14 -23 19 -57 41 -43 32 -49 -70 -52 -42 -1 -87 -5 -99 -8 -16 -3 -23 -1 -22 8 1 18 170 166 203 179 14 5 26 14 26 19 0 9 -60 51 -73 51 -3 0 -44 -45 -92 -100 -48 -55 -90 -100 -95 -100 -4 0 -5 11 -3 24 4 17 -5 33 -32 61 l-37 37 43 44 c24 25 54 47 67 51 12 3 22 11 22 17 0 14 127 46 182 46 50 0 56 15 18 50 -38 35 -36 35 -120 3z m-200 -120 c-1 -5 -12 -21 -25 -38 l-24 -29 -38 21 c-63 36 -54 44 60 51 15 1 27 -1 27 -5z" fill="#fafafa"/>
<path d="M2845 6751 c-3 -7 29 -46 73 -89 43 -42 91 -96 105 -119 29 -46 36 -50 55 -31 39 39 -11 115 -128 193 -79 53 -96 60 -105 46z" fill="#fafafa"/>
<path d="M4717 6514 c-9 -12 -17 -28 -17 -34 0 -7 -8 -9 -20 -5 -13 4 -20 2 -20 -7 0 -15 23 -36 66 -58 16 -9 31 -25 33 -35 3 -18 1 -18 -23 4 -14 14 -26 19 -26 13 0 -7 -9 -12 -20 -12 -13 0 -18 -5 -14 -15 4 -9 0 -15 -9 -15 -8 0 -17 5 -19 10 -5 15 -48 -18 -48 -36 0 -8 7 -14 16 -12 25 4 28 -19 5 -27 -17 -5 -20 -12 -15 -33 10 -39 23 -51 36 -29 9 18 11 18 25 -2 8 -12 24 -21 36 -20 12 0 16 3 9 6 -17 7 -5 23 18 23 15 0 20 10 26 45 3 25 10 48 15 51 15 9 10 46 -8 67 -15 16 -15 21 -4 25 18 6 51 40 51 52 0 6 -7 10 -15 10 -8 0 -15 6 -15 14 0 7 -10 20 -23 29 -20 13 -24 13 -40 -9z m-17 -183 c0 -6 -4 -13 -10 -16 -5 -3 -10 1 -10 9 0 9 5 16 10 16 6 0 10 -4 10 -9z m40 -36 c0 -8 -4 -15 -9 -15 -13 0 -22 16 -14 24 11 11 23 6 23 -9z" fill="#fafafa"/>
<path d="M4476 6505 c-3 -8 2 -31 10 -51 15 -35 16 -36 57 -30 23 4 43 8 44 10 2 2 -1 15 -6 29 -7 17 -20 29 -38 32 -15 4 -35 10 -45 15 -11 6 -18 5 -22 -5z" fill="#fafafa"/>
<path d="M4865 6420 c-3 -5 3 -10 14 -10 12 0 21 5 21 10 0 6 -6 10 -14 10 -8 0 -18 -4 -21 -10z" fill="#fafafa"/>
<path d="M5051 6394 c0 -11 3 -14 6 -6 3 7 2 16 -1 19 -3 4 -6 -2 -5 -13z" fill="#fafafa"/>
<path d="M4849 6365 c-44 -23 -60 -47 -40 -60 6 -3 11 1 11 10 0 12 5 15 16 11 9 -3 18 -6 20 -6 2 0 4 -6 4 -14 0 -18 51 -9 68 12 20 25 14 31 -20 21 -17 -5 -34 -6 -37 -3 -8 8 22 24 37 19 6 -2 12 2 12 9 0 25 -27 25 -71 1z" fill="#fafafa"/>
<path d="M5255 6050 c-16 -17 -24 -30 -19 -30 13 0 59 48 52 55 -2 3 -17 -9 -33 -25z" fill="#fafafa"/>
<path d="M5190 5990 c-8 -5 -12 -12 -9 -15 4 -3 12 1 19 10 14 17 11 19 -10 5z" fill="#fafafa"/>
<path d="M2770 5983 c0 -5 10 -18 23 -29 l22 -19 -20 25 c-11 14 -21 27 -22 29 -2 2 -3 0 -3 -6z" fill="#fafafa"/>
<path d="M5155 5900 c-3 -5 -1 -10 4 -10 6 0 11 5 11 10 0 6 -2 10 -4 10 -3 0 -8 -4 -11 -10z" fill="#fafafa"/>
<path d="M2850 5850 c0 -5 5 -10 11 -10 5 0 7 5 4 10 -3 6 -8 10 -11 10 -2 0 -4 -4 -4 -10z" fill="#fafafa"/>
<path d="M5177 5829 c-7 -24 -1 -39 14 -39 11 0 12 30 0 48 -6 10 -10 8 -14 -9z" fill="#fafafa"/>
<path d="M3160 5753 c0 -36 -3 -44 -11 -33 -7 11 -9 2 -7 -35 2 -38 -2 -55 -17 -72 -13 -15 -20 -39 -20 -69 -1 -38 3 -48 24 -63 31 -21 61 -17 61 9 0 11 6 23 13 27 6 4 18 16 26 25 11 15 9 21 -19 49 -23 24 -30 38 -26 55 3 12 1 26 -5 30 -7 4 -8 26 -4 65 5 40 3 59 -4 59 -6 0 -11 -20 -11 -47z" fill="#fafafa"/>
<path d="M3001 5780 c0 -8 4 -24 9 -35 5 -13 9 -14 9 -5 0 8 -4 24 -9 35 -5 13 -9 14 -9 5z" fill="#fafafa"/>
<path d="M3200 5749 c-6 -23 -9 -43 -6 -46 3 -3 8 8 11 23 4 16 9 37 12 47 2 9 2 17 -1 17 -3 0 -10 -18 -16 -41z" fill="#fafafa"/>
<path d="M5201 5754 c0 -11 3 -14 6 -6 3 7 2 16 -1 19 -3 4 -6 -2 -5 -13z" fill="#fafafa"/>
<path d="M3028 5704 c6 -11 18 -26 26 -34 9 -7 16 -21 16 -31 0 -10 4 -20 9 -24 20 -12 -10 61 -35 85 -22 21 -25 22 -16 4z" fill="#fafafa"/>
<path d="M2698 5692 c-20 -4 -22 -15 -8 -42 13 -25 -2 -33 -26 -15 -10 8 -23 14 -29 14 -5 0 -1 -6 10 -15 16 -12 18 -18 7 -34 -19 -31 -15 -47 24 -82 23 -21 34 -39 31 -50 -3 -10 -2 -20 2 -23 11 -6 82 48 107 82 19 25 20 32 8 47 -7 10 -11 30 -8 45 10 48 -54 87 -118 73z m26 -144 c3 -13 6 -27 6 -33 -1 -15 -30 27 -30 42 0 22 17 15 24 -9z" fill="#fafafa"/>
<path d="M2901 5672 c13 -16 25 -28 27 -27 7 6 -11 32 -30 44 -20 12 -20 11 3 -17z" fill="#fafafa"/>
<path d="M5314 5685 c11 -8 22 -12 25 -9 6 6 -19 24 -34 24 -5 -1 -1 -7 9 -15z" fill="#fafafa"/>
<path d="M5665 5691 c-24 -5 -29 -12 -28 -29 2 -13 -4 -25 -12 -29 -12 -4 -13 -9 -4 -19 8 -10 6 -21 -7 -43 -16 -27 -16 -31 -1 -54 22 -34 108 -54 138 -33 20 14 20 14 -2 34 -20 20 -21 22 -4 38 9 10 33 18 53 20 21 1 40 2 45 3 12 2 8 26 -12 70 -15 36 -20 39 -31 26 -15 -19 -29 -19 -49 -1 -22 19 -51 25 -86 17z m10 -91 c3 -5 -1 -10 -10 -10 -9 0 -13 5 -10 10 3 6 8 10 10 10 2 0 7 -4 10 -10z" fill="#fafafa"/>
<path d="M6257 5683 c-15 -14 -5 -19 35 -16 60 5 74 23 17 23 -25 0 -49 -3 -52 -7z" fill="#fafafa"/>
<path d="M2555 5640 c-3 -5 -1 -10 4 -10 6 0 11 5 11 10 0 6 -2 10 -4 10 -3 0 -8 -4 -11 -10z" fill="#fafafa"/>
<path d="M2953 5624 c-7 -7 -13 -18 -13 -24 0 -5 -7 -10 -15 -10 -18 0 -18 -2 -1 -44 15 -36 67 -69 93 -59 12 5 14 1 8 -18 l-7 -24 20 21 c12 12 26 24 32 26 8 2 7 15 -2 43 -17 50 -96 111 -115 89z" fill="#fafafa"/>
<path d="M5485 5563 c-6 -2 -9 -19 -7 -38 5 -41 -6 -44 -37 -11 -13 14 -29 22 -37 19 -23 -8 -16 -50 11 -71 28 -22 33 -42 10 -42 -22 0 -19 -43 4 -64 18 -17 20 -17 29 0 6 12 16 15 28 10 18 -7 17 -8 -5 -25 -17 -13 -24 -28 -24 -51 0 -41 21 -57 67 -52 33 4 36 7 36 36 0 36 -8 50 -32 59 -27 10 -22 27 7 27 14 0 25 -4 25 -8 0 -5 21 -32 48 -61 44 -49 49 -52 74 -42 27 10 29 8 52 -37 14 -27 32 -54 40 -61 24 -20 20 -7 -13 42 -19 27 -30 56 -30 78 1 46 -11 99 -22 99 -5 0 -6 -7 -2 -16 5 -14 1 -15 -28 -9 -44 9 -54 16 -40 25 7 3 14 22 17 42 6 32 3 36 -25 48 -25 10 -37 10 -62 0 -22 -10 -33 -10 -42 -1 -8 8 -6 11 10 11 32 0 37 29 11 57 -27 29 -49 42 -63 36z m171 -244 c3 -6 1 -16 -5 -22 -9 -9 -14 -8 -21 3 -5 8 -10 18 -10 23 0 11 28 8 36 -4z" fill="#fafafa"/>
<path d="M5980 5480 c0 -5 5 -12 10 -15 18 -11 11 -44 -14 -67 -21 -19 -24 -29 -18 -58 7 -30 12 -35 40 -36 18 -1 35 2 38 7 10 18 25 9 22 -13 -2 -18 -9 -22 -28 -20 -19 2 -22 0 -12 -10 6 -6 12 -20 12 -31 0 -10 11 -33 24 -50 19 -26 24 -44 24 -97 -1 -72 7 -100 28 -100 17 0 18 22 3 37 -6 6 -13 37 -16 69 -3 33 -14 73 -24 90 -11 17 -19 41 -19 52 0 25 35 52 67 52 29 0 47 33 33 60 -10 19 -12 19 -41 4 -34 -17 -45 -14 -36 11 4 8 16 15 27 15 17 0 21 5 18 28 -2 22 -9 28 -35 32 -18 3 -41 12 -51 21 -23 20 -52 31 -52 19z m61 -135 c-1 -15 -24 -12 -29 3 -3 9 2 13 12 10 10 -1 17 -7 17 -13z" fill="#fafafa"/>
<path d="M2930 5463 c0 -13 29 -38 35 -31 3 3 -4 13 -15 23 -11 10 -20 13 -20 8z" fill="#fafafa"/>
<path d="M9358 5443 c-35 -9 -17 -35 42 -59 3 -2 6 12 5 29 0 32 -12 40 -47 30z" fill="#fafafa"/>
<path d="M3195 5414 c8 -13 12 -30 9 -38 -8 -20 -34 -21 -34 -1 0 30 -74 47 -98 23 -10 -10 -17 -10 -33 0 -17 11 -24 10 -50 -8 -30 -22 -31 -44 -1 -36 10 2 27 7 39 11 16 4 25 0 33 -15 13 -25 2 -51 -12 -26 -7 12 -16 15 -31 10 -54 -16 -74 -65 -39 -95 35 -30 43 -31 62 -9 10 12 23 19 29 16 5 -4 -1 -17 -15 -31 -27 -27 -32 -50 -8 -41 17 7 94 -13 94 -24 0 -17 -15 -19 -37 -5 -23 15 -23 15 -17 -10 6 -26 -4 -33 -23 -14 -21 21 -56 6 -65 -27 -13 -50 12 -106 50 -116 18 -5 32 -13 32 -18 0 -6 11 -10 25 -10 14 0 25 5 25 10 0 6 11 4 24 -5 27 -18 56 -11 57 14 0 10 2 11 6 4 7 -18 23 -16 23 2 0 8 5 15 10 15 6 0 8 10 4 24 -4 18 0 28 17 40 30 21 16 34 -41 38 -31 2 -44 7 -42 17 1 7 -3 19 -9 27 -9 11 -8 14 4 14 8 0 21 -7 28 -16 10 -12 24 -15 55 -10 24 3 45 1 52 -6 8 -8 9 -5 5 11 -5 18 -1 21 26 21 l31 0 -17 36 c-17 34 -17 36 2 50 29 21 34 17 28 -22 -4 -25 -2 -39 8 -45 11 -6 11 -11 1 -21 -6 -6 -12 -22 -12 -33 0 -29 -10 -37 -28 -22 -13 10 -14 8 -8 -11 5 -13 3 -22 -3 -22 -6 0 -11 -7 -11 -16 0 -10 5 -14 15 -10 11 4 21 -5 32 -29 9 -19 20 -35 25 -35 12 0 10 14 -7 36 -18 24 -19 35 -1 28 9 -3 17 3 21 15 8 27 49 28 67 2 30 -43 86 -24 136 47 19 28 21 33 7 38 -8 3 -15 17 -15 30 0 21 -5 24 -37 24 l-37 0 34 30 c19 16 30 29 25 30 -6 0 -16 -5 -23 -12 -6 -6 -14 -9 -18 -6 -3 4 13 27 37 52 23 26 39 49 37 52 -3 3 -25 -18 -49 -45 -46 -53 -59 -61 -59 -37 0 15 -50 56 -69 56 -5 0 -21 -12 -34 -26 -19 -20 -25 -23 -30 -11 -3 8 -20 17 -37 20 -31 7 -38 31 -9 33 28 1 59 16 54 25 -4 5 -22 9 -41 9 -39 0 -44 12 -11 27 21 11 21 12 -17 28 -48 20 -83 13 -88 -18 -4 -30 -23 -19 -23 14 0 21 -5 27 -23 27 -21 0 -22 -2 -7 -24z m-27 -96 c6 -22 15 -33 25 -32 19 2 22 -22 7 -46 -8 -12 -11 -12 -28 3 -11 10 -26 15 -36 11 -11 -4 -16 -1 -16 10 0 9 6 19 14 22 9 4 12 15 9 35 -6 40 14 37 25 -3z m57 12 c3 -5 1 -10 -4 -10 -6 0 -11 5 -11 10 0 6 2 10 4 10 3 0 8 -4 11 -10z m75 -70 c0 -9 -32 -30 -46 -30 -4 0 1 9 11 20 19 21 35 26 35 10z m300 -100 c0 -12 -28 -25 -36 -17 -9 9 6 27 22 27 8 0 14 -5 14 -10z m-50 -39 c0 -11 -39 -41 -52 -41 -12 0 -9 25 4 38 14 14 48 16 48 3z m-380 -51 c0 -5 -4 -10 -10 -10 -5 0 -10 5 -10 10 0 6 5 10 10 10 6 0 10 -4 10 -10z m50 -15 c0 -12 -45 -55 -57 -55 -24 0 -14 36 15 47 32 13 42 15 42 8z" fill="#fafafa"/>
<path d="M9295 5420 c-3 -6 1 -13 10 -16 19 -8 30 0 20 15 -8 14 -22 14 -30 1z" fill="#fafafa"/>
<path d="M2690 5406 c0 -8 4 -17 9 -20 5 -4 7 3 4 14 -6 23 -13 26 -13 6z" fill="#fafafa"/>
<path d="M9215 5360 c-15 -17 -16 -20 -3 -20 9 0 19 7 22 16 10 25 1 27 -19 4z" fill="#fafafa"/>
<path d="M9085 5300 c-11 -18 26 -23 43 -6 15 15 14 16 -10 16 -15 0 -30 -5 -33 -10z" fill="#fafafa"/>
<path d="M8966 5281 c-7 -11 22 -23 35 -15 5 3 7 10 4 15 -8 12 -32 12 -39 0z" fill="#fafafa"/>
<path d="M8715 5199 c-4 -6 -5 -13 -2 -16 7 -7 27 6 27 18 0 12 -17 12 -25 -2z" fill="#fafafa"/>
<path d="M5860 5105 c13 -14 28 -25 33 -25 6 0 0 11 -13 25 -13 14 -28 25 -33 25 -6 0 0 -11 13 -25z" fill="#fafafa"/>
<path d="M2060 5105 c-7 -9 -11 -17 -8 -20 2 -2 12 4 21 15 9 11 13 20 8 20 -5 0 -14 -7 -21 -15z" fill="#fafafa"/>
<path d="M2110 5112 c0 -5 6 -15 14 -22 8 -6 17 -21 19 -33 3 -15 5 -12 6 10 1 23 -5 35 -19 43 -11 6 -20 7 -20 2z" fill="#fafafa"/>
<path d="M5590 5083 c-17 -19 -30 -42 -30 -51 0 -23 19 -42 35 -36 6 3 18 -2 25 -11 11 -13 9 -20 -13 -43 -23 -24 -25 -31 -14 -45 18 -25 78 -32 114 -13 22 11 32 25 37 50 6 33 30 54 40 35 2 -5 3 -4 2 3 -1 7 -13 19 -27 25 -26 14 -22 16 34 13 33 -1 37 1 37 24 0 15 -11 33 -27 46 l-28 22 -3 -26 c-4 -30 -22 -36 -22 -7 0 28 -43 51 -90 49 -33 -1 -47 -8 -70 -35z m96 -91 c-22 -5 -30 3 -21 18 5 8 11 7 22 -2 15 -12 14 -13 -1 -16z" fill="#fafafa"/>
<path d="M5917 5093 c-14 -13 -6 -22 36 -42 48 -23 57 -25 57 -12 0 7 -73 61 -83 61 -2 0 -7 -3 -10 -7z" fill="#fafafa"/>
<path d="M1963 5072 c10 -10 17 -24 17 -30 0 -16 23 -15 38 0 17 17 15 27 -6 21 -10 -2 -24 3 -31 11 -8 9 -18 16 -24 16 -5 0 -3 -8 6 -18z" fill="#fafafa"/>
<path d="M2310 5045 c0 -8 5 -15 10 -15 6 0 10 7 10 15 0 8 -4 15 -10 15 -5 0 -10 -7 -10 -15z" fill="#fafafa"/>
<path d="M1878 5028 c-13 -13 -27 -23 -33 -23 -14 0 -10 -74 5 -88 9 -10 11 -4 6 28 -6 37 -4 41 25 58 17 9 39 17 49 17 25 0 34 16 14 24 -27 11 -43 7 -66 -16z" fill="#fafafa"/>
<path d="M2121 4994 c-7 -20 -11 -38 -8 -40 3 -3 10 11 17 31 16 47 8 55 -9 9z" fill="#fafafa"/>
<path d="M6031 4998 c14 -26 24 -35 92 -80 34 -23 46 -36 42 -49 -4 -11 5 -30 24 -51 16 -19 33 -46 36 -60 4 -15 15 -34 26 -44 10 -9 19 -25 19 -34 0 -9 4 -20 9 -25 5 -6 11 -21 13 -35 1 -14 8 -24 13 -22 11 3 11 12 -4 92 -6 30 -19 61 -28 70 -17 14 -37 53 -88 165 -14 30 -20 35 -23 22 -2 -11 -10 -16 -17 -13 -31 11 -96 58 -102 71 -3 8 -9 15 -14 15 -6 0 -4 -10 2 -22z" fill="#fafafa"/>
<path d="M1697 4983 c-12 -12 -7 -33 8 -33 17 0 19 9 7 28 -5 7 -11 9 -15 5z" fill="#fafafa"/>
<path d="M3440 4925 c0 -2 18 -14 40 -25 50 -25 61 -47 54 -102 -5 -37 -2 -49 18 -73 41 -50 98 -196 98 -251 0 -27 4 -63 9 -81 5 -17 7 -34 4 -37 -6 -6 -71 30 -98 54 -11 10 -32 23 -48 29 -34 13 -46 45 -52 135 -3 39 -9 85 -13 101 -8 28 -12 30 -63 32 -217 10 -369 11 -373 4 -9 -15 -64 1 -87 25 -16 17 -33 24 -61 24 -48 0 -178 -22 -178 -30 0 -12 102 -11 115 0 10 8 22 7 44 -5 17 -8 41 -13 54 -10 15 4 28 1 36 -9 23 -27 -58 -94 -168 -138 -50 -21 -100 -38 -109 -38 -9 0 -28 -9 -42 -20 l-25 -20 63 0 c35 0 71 4 81 9 10 6 41 12 71 15 29 2 58 10 63 15 6 6 21 11 33 11 30 0 38 14 22 39 -10 17 -9 23 5 38 10 10 28 30 40 45 22 28 22 28 57 10 40 -19 46 -45 13 -50 -13 -2 -23 -9 -23 -17 0 -7 -7 -15 -15 -19 -9 -3 -15 -18 -15 -37 l0 -32 45 47 c25 27 45 52 45 57 0 14 42 32 85 35 122 11 204 11 232 1 30 -10 32 -13 38 -77 4 -37 5 -84 4 -105 -3 -30 1 -40 16 -49 11 -6 31 -18 45 -27 14 -9 36 -20 49 -24 12 -4 39 -18 58 -31 20 -13 43 -24 51 -24 17 0 72 -48 72 -63 0 -22 111 -127 135 -127 2 0 -10 31 -26 68 -30 67 -57 103 -110 142 -27 20 -59 116 -59 178 0 17 -17 65 -39 108 -21 44 -41 87 -44 97 -4 9 -13 17 -21 17 -19 0 -28 43 -16 75 17 44 12 53 -42 85 -51 29 -68 35 -68 25z" fill="#fafafa"/>
<path d="M2190 4900 c6 -11 15 -20 20 -20 6 0 2 9 -7 20 -10 11 -19 20 -21 20 -1 0 2 -9 8 -20z" fill="#fafafa"/>
<path d="M2380 4898 c-11 -12 -20 -32 -20 -45 0 -32 36 -66 65 -60 33 6 48 -6 40 -32 -8 -26 -31 -27 -58 -3 -11 9 -17 11 -13 4 11 -18 -12 -42 -40 -42 -12 0 -30 -10 -38 -21 -13 -19 -13 -23 0 -37 11 -11 18 -12 27 -3 22 22 36 11 43 -35 l6 -46 33 32 c27 26 36 30 52 21 42 -22 60 45 22 85 -17 19 -19 26 -9 44 10 19 9 24 -9 37 -15 10 -21 25 -21 52 0 58 -46 85 -80 49z" fill="#fafafa"/>
<path d="M1830 4864 c0 -8 5 -12 10 -9 6 3 10 10 10 16 0 5 -4 9 -10 9 -5 0 -10 -7 -10 -16z" fill="#fafafa"/>
<path d="M2290 4815 c17 -25 36 -45 41 -45 13 0 -41 77 -59 85 -7 2 1 -16 18 -40z" fill="#fafafa"/>
<path d="M1806 4694 c-4 -9 -4 -19 -1 -22 2 -3 7 3 11 12 4 9 4 19 1 22 -2 3 -7 -3 -11 -12z" fill="#fafafa"/>
<path d="M6342 4605 c26 -73 65 -90 171 -76 15 2 -62 31 -84 31 -21 0 -69 25 -81 42 -5 7 -8 9 -6 3z" fill="#fafafa"/>
<path d="M2955 4560 c4 -6 11 -8 16 -5 14 9 11 15 -7 15 -8 0 -12 -5 -9 -10z" fill="#fafafa"/>
<path d="M3093 4543 c-3 -10 -9 -22 -11 -28 -3 -5 2 -4 12 4 14 12 19 12 26 2 10 -17 22 2 14 23 -8 21 -33 20 -41 -1z" fill="#fafafa"/>
<path d="M6615 4548 c-4 -10 -15 -13 -31 -10 -17 3 -24 0 -24 -11 0 -11 9 -15 34 -13 19 2 49 -4 67 -12 44 -20 69 -24 69 -13 0 5 -9 13 -21 16 -23 8 -20 31 5 27 9 -2 16 1 16 7 0 5 -17 9 -37 8 -21 -1 -46 3 -55 7 -12 5 -20 3 -23 -6z" fill="#fafafa"/>
<path d="M3050 4534 c0 -8 5 -12 10 -9 6 3 10 10 10 16 0 5 -4 9 -10 9 -5 0 -10 -7 -10 -16z" fill="#fafafa"/>
<path d="M6780 4509 c0 -6 7 -18 16 -26 13 -13 17 -14 24 -3 7 11 15 11 43 -5 24 -13 46 -16 74 -13 59 8 121 -21 129 -61 4 -17 14 -33 24 -36 18 -6 39 -33 71 -90 10 -18 24 -29 33 -27 9 2 16 -4 16 -14 0 -25 40 -56 55 -44 9 8 17 3 29 -14 20 -31 20 -36 1 -36 -18 0 -20 -16 -2 -23 7 -2 26 -30 42 -60 16 -31 32 -54 37 -51 5 3 6 10 2 15 -3 6 3 13 15 16 12 3 21 10 21 15 0 20 -71 126 -95 142 -13 9 -43 42 -67 74 -23 31 -47 62 -53 67 -7 6 -22 24 -34 42 -12 17 -30 35 -41 38 -25 8 -14 38 11 32 23 -6 26 11 4 20 -9 3 -24 -2 -34 -11 -22 -20 -40 -20 -61 -1 -10 9 -41 18 -71 21 -30 4 -83 15 -118 25 -74 22 -71 22 -71 8z m380 -169 c0 -5 -4 -10 -10 -10 -5 0 -10 5 -10 10 0 6 5 10 10 10 6 0 10 -4 10 -10z" fill="#fafafa"/>
<path d="M6805 4430 c10 -11 23 -20 28 -20 6 0 2 9 -8 20 -10 11 -23 20 -28 20 -6 0 -2 -9 8 -20z" fill="#fafafa"/>
<path d="M2470 4391 c-49 -48 -54 -56 -51 -92 2 -34 -3 -44 -39 -77 -44 -43 -51 -76 -28 -139 10 -28 9 -38 -6 -64 -10 -16 -23 -40 -29 -52 -7 -12 -22 -36 -34 -54 -19 -26 -20 -32 -8 -37 23 -8 18 -26 -7 -27 -23 0 -76 -55 -64 -66 3 -4 13 2 21 13 14 18 14 18 15 -3 0 -18 5 -22 23 -20 17 2 22 -3 20 -20 -2 -13 2 -23 8 -23 13 0 39 -25 39 -39 0 -5 4 -13 10 -16 6 -4 7 5 4 23 -6 27 -3 31 26 37 18 4 29 10 24 14 -5 3 -10 19 -11 35 0 16 -6 32 -11 35 -6 4 -16 28 -21 53 -13 55 -3 91 34 119 l24 19 -24 53 c-38 85 -38 90 -6 122 16 17 36 36 45 43 10 8 16 28 16 52 0 33 4 41 28 52 28 13 67 78 60 100 -2 6 -28 -12 -58 -41z m-135 -480 c0 -27 -3 -53 -7 -57 -5 -4 -8 0 -8 9 0 9 -7 20 -17 25 -15 9 -14 12 6 41 12 17 23 31 24 31 1 0 2 -22 2 -49z" fill="#fafafa"/>
<path d="M7170 4410 c0 -12 41 -40 58 -40 7 0 11 4 7 9 -8 14 -65 41 -65 31z" fill="#fafafa"/>
<path d="M6930 4401 c0 -5 5 -13 10 -16 6 -3 10 -2 10 4 0 5 -4 13 -10 16 -5 3 -10 2 -10 -4z" fill="#fafafa"/>
<path d="M7060 4299 c0 -9 7 -22 15 -29 19 -16 19 0 0 26 -12 16 -14 16 -15 3z" fill="#fafafa"/>
<path d="M8782 4250 c-6 -11 -12 -28 -12 -37 0 -15 2 -15 14 -3 17 18 30 60 19 60 -4 0 -14 -9 -21 -20z" fill="#fafafa"/>
<path d="M7236 4090 c15 -22 29 -38 31 -36 6 6 -40 76 -50 76 -4 0 5 -18 19 -40z" fill="#fafafa"/>
<path d="M4060 3986 c0 -2 7 -6 15 -10 8 -3 15 -1 15 4 0 6 -7 10 -15 10 -8 0 -15 -2 -15 -4z" fill="#fafafa"/>
<path d="M4100 3970 c0 -5 5 -10 11 -10 5 0 7 5 4 10 -3 6 -8 10 -11 10 -2 0 -4 -4 -4 -10z" fill="#fafafa"/>
<path d="M2090 3941 c-22 -6 -25 -12 -22 -44 3 -34 1 -37 -25 -38 -71 -3 -86 -16 -78 -62 9 -45 16 -50 51 -37 36 14 54 -2 36 -30 -17 -27 -16 -30 14 -30 23 0 25 -3 19 -29 -7 -32 13 -111 28 -111 5 0 11 9 14 20 5 18 15 24 36 21 4 -1 17 3 27 9 21 11 28 63 12 87 -10 16 -62 35 -62 23 0 -6 -12 -10 -26 -10 -30 0 -28 23 2 28 10 2 29 16 41 31 17 22 21 36 16 65 -6 39 -31 50 -40 16 -6 -21 -33 -28 -33 -8 0 7 12 25 28 41 18 20 23 31 15 34 -7 3 -13 11 -13 19 0 15 -3 16 -40 5z m67 -313 c-3 -8 -6 -5 -6 6 -1 11 2 17 5 13 3 -3 4 -12 1 -19z" fill="#fafafa"/>
<path d="M4225 3929 c6 -9 39 -25 58 -28 11 -1 119 -59 140 -75 9 -7 17 -18 17 -23 0 -12 140 -85 167 -87 31 -3 93 -34 99 -51 3 -8 14 -15 23 -15 9 0 31 -9 50 -21 61 -37 43 -13 -31 41 -40 30 -86 59 -103 64 -43 15 -141 72 -201 116 -30 23 -84 49 -133 64 -93 30 -95 30 -86 15z" fill="#fafafa"/>
<path d="M7380 3800 c0 -5 7 -10 15 -10 8 0 15 5 15 10 0 6 -7 10 -15 10 -8 0 -15 -4 -15 -10z" fill="#fafafa"/>
<path d="M2007 3673 c-4 -3 -7 -13 -7 -21 0 -12 3 -12 15 -2 8 7 15 16 15 21 0 11 -14 12 -23 2z" fill="#fafafa"/>
<path d="M7786 3651 c-4 -7 -5 -15 -2 -18 9 -9 19 4 14 18 -4 11 -6 11 -12 0z" fill="#fafafa"/>
<path d="M4850 3575 c26 -28 40 -32 40 -12 0 7 -14 18 -31 24 l-32 12 23 -24z" fill="#fafafa"/>
<path d="M7760 3561 c0 -6 5 -11 11 -11 6 0 8 -9 4 -20 -4 -11 -2 -20 4 -20 6 0 11 9 11 21 0 26 25 20 26 -7 0 -25 26 -64 41 -64 7 0 13 -4 13 -9 0 -13 -30 -22 -43 -14 -8 4 -8 1 1 -9 8 -10 22 -13 39 -10 18 3 30 -1 39 -13 7 -10 20 -15 28 -12 9 4 18 2 21 -3 4 -6 16 -10 28 -10 16 0 18 -3 9 -12 -8 -8 -15 -8 -26 1 -10 9 -16 9 -21 1 -7 -11 30 -50 47 -50 4 0 8 -7 8 -15 0 -24 27 -29 56 -10 18 11 23 21 18 33 -3 9 -6 25 -6 35 0 10 -7 21 -16 24 -9 4 -21 12 -25 20 -4 7 -20 13 -35 14 -61 1 -134 46 -146 89 -5 19 -5 21 3 10 5 -8 13 -12 16 -8 10 9 -14 48 -29 48 -7 0 -28 3 -45 6 -20 4 -31 3 -31 -5z" fill="#fafafa"/>
<path d="M8510 3545 c0 -8 5 -15 10 -15 6 0 10 7 10 15 0 8 -4 15 -10 15 -5 0 -10 -7 -10 -15z" fill="#fafafa"/>
<path d="M8410 3482 c0 -10 -5 -23 -10 -28 -14 -14 12 -37 32 -29 19 7 12 75 -8 75 -8 0 -14 -8 -14 -18z" fill="#fafafa"/>
<path d="M8460 3476 c0 -18 10 -25 26 -19 20 7 17 20 -6 26 -12 3 -20 0 -20 -7z" fill="#fafafa"/>
<path d="M8510 3471 c0 -5 5 -13 10 -16 6 -3 10 -2 10 4 0 5 -4 13 -10 16 -5 3 -10 2 -10 -4z" fill="#fafafa"/>
<path d="M4425 3441 c-27 -16 -71 -49 -97 -72 -25 -24 -58 -52 -72 -62 -14 -10 -26 -24 -26 -32 0 -8 -5 -15 -10 -15 -15 0 -118 -83 -119 -96 -1 -7 -28 -36 -61 -65 -71 -63 -72 -80 -2 -20 28 22 54 41 60 41 5 0 32 19 58 43 53 47 142 102 151 93 14 -14 65 29 86 72 12 26 22 48 23 50 1 2 18 5 38 8 20 2 40 5 44 6 4 1 19 -5 34 -12 24 -11 32 -11 61 5 27 14 38 15 55 6 11 -6 33 -11 49 -11 15 0 48 -9 72 -20 51 -23 80 -25 106 -6 17 12 15 13 -21 13 -21 1 -79 13 -129 27 -136 41 -194 56 -215 56 -11 0 -20 5 -20 10 0 15 -11 12 -65 -19z" fill="#fafafa"/>
<path d="M8480 3380 c-6 -22 -15 -40 -20 -40 -6 0 -10 -5 -10 -12 0 -24 38 27 45 60 9 46 -2 40 -15 -8z" fill="#fafafa"/>
<path d="M8422 3379 c0 -21 -11 -42 -33 -65 -24 -25 -30 -38 -26 -56 6 -21 0 -28 -41 -50 -26 -14 -52 -36 -59 -49 -24 -48 -36 -115 -27 -145 8 -29 8 -29 11 11 6 66 11 74 33 45 11 -14 20 -34 20 -46 0 -11 7 -29 15 -40 8 -10 15 -29 15 -42 0 -27 34 -97 52 -109 7 -4 28 -8 45 -8 27 0 32 3 27 19 -4 11 -2 16 4 12 6 -3 8 2 5 12 -2 11 3 26 12 35 15 15 14 19 -14 46 -32 32 -93 51 -99 32 -2 -6 -10 -11 -19 -11 -9 0 -12 6 -8 19 3 10 -1 24 -10 31 -8 7 -15 20 -15 30 0 9 -9 25 -20 35 -11 10 -20 28 -19 39 0 12 3 15 6 8 6 -17 33 3 33 25 0 8 17 21 38 29 33 14 62 49 62 78 0 5 7 18 16 28 10 10 17 35 17 58 0 50 -19 77 -21 29z m-32 -499 c0 -5 -4 -10 -10 -10 -5 0 -10 5 -10 10 0 6 5 10 10 10 6 0 10 -4 10 -10z" fill="#fafafa"/>
<path d="M4930 3385 c-41 -16 -40 -16 63 -18 61 -2 76 1 72 11 -3 8 -5 16 -5 18 0 10 -98 1 -130 -11z" fill="#fafafa"/>
<path d="M5105 3370 c-3 -5 1 -10 9 -10 9 0 16 5 16 10 0 6 -4 10 -9 10 -6 0 -13 -4 -16 -10z" fill="#fafafa"/>
<path d="M7186 3223 c-20 -25 -36 -55 -36 -65 0 -27 8 -22 25 15 8 17 25 47 36 65 30 47 17 39 -25 -15z" fill="#fafafa"/>
<path d="M5550 3200 c0 -5 6 -10 14 -10 7 0 19 -7 26 -15 7 -9 42 -32 77 -51 35 -20 68 -45 74 -56 14 -26 22 -17 13 16 -5 23 -51 56 -77 56 -5 0 -34 16 -63 35 -56 38 -64 41 -64 25z" fill="#fafafa"/>
<path d="M7111 3176 c-16 -19 -11 -29 8 -17 7 5 12 14 9 21 -3 9 -8 7 -17 -4z" fill="#fafafa"/>
<path d="M8369 3153 c-8 -21 -12 -24 -19 -13 -7 11 -10 8 -15 -12 -8 -31 10 -69 29 -62 7 3 19 -2 26 -11 11 -13 11 -18 1 -24 -20 -13 27 -43 48 -31 35 21 53 39 47 49 -3 5 -1 21 6 35 10 23 9 28 -8 41 -11 9 -30 13 -48 10 -26 -5 -28 -3 -22 20 9 37 -31 35 -45 -2z m61 -64 c0 -11 -11 -11 -29 0 -7 5 -10 14 -6 20 5 9 10 9 21 0 8 -6 14 -15 14 -20z" fill="#fafafa"/>
<path d="M7111 3088 c0 -9 -11 -18 -23 -20 -25 -3 -39 -38 -16 -38 28 0 50 25 45 51 -2 13 -5 16 -6 7z" fill="#fafafa"/>
<path d="M8048 3081 c-13 -19 -17 -20 -28 -6 -17 21 -79 19 -96 -2 -19 -25 -17 -40 6 -73 11 -16 17 -35 14 -44 -8 -20 -13 -20 -34 -1 -14 13 -19 13 -38 -1 -23 -16 -29 -39 -12 -49 6 -4 17 -1 25 5 12 10 18 6 30 -24 8 -20 18 -36 21 -36 6 0 68 26 95 40 10 5 29 -2 55 -20 37 -25 43 -26 65 -14 21 12 22 13 4 12 -40 -3 -54 2 -60 22 -3 11 -13 20 -21 20 -19 0 -18 19 1 26 8 4 15 14 15 23 0 12 8 17 23 17 18 -1 21 4 19 24 -2 14 -14 34 -26 45 -13 11 -28 28 -33 39 -10 18 -11 18 -25 -3z m10 -75 c3 -12 -1 -17 -10 -14 -7 3 -15 13 -16 22 -3 12 1 17 10 14 7 -3 15 -13 16 -22z m-84 -62 c10 -26 7 -44 -8 -44 -20 0 -26 12 -19 38 6 26 18 28 27 6z" fill="#fafafa"/>
<path d="M7700 3061 c0 -5 8 -7 19 -4 10 3 22 0 25 -6 4 -6 13 -11 19 -11 7 0 3 7 -7 15 -22 17 -56 20 -56 6z" fill="#fafafa"/>
<path d="M7087 3005 c-4 -8 -2 -17 3 -20 6 -4 10 3 10 14 0 25 -6 27 -13 6z" fill="#fafafa"/>
<path d="M3943 2967 c-12 -23 -27 -62 -33 -85 -14 -53 -63 -137 -102 -174 -33 -32 -68 -37 -68 -10 0 30 -82 100 -131 111 -56 13 -62 13 -54 1 3 -5 17 -10 31 -10 29 0 42 -24 24 -45 -10 -12 -9 -15 9 -15 13 0 30 -14 46 -40 14 -23 34 -44 43 -47 9 -4 20 -12 25 -19 18 -31 180 165 193 235 4 20 17 54 30 77 12 22 19 45 15 52 -4 6 -15 -6 -28 -31z" fill="#fafafa"/>
<path d="M6730 2975 c-8 -9 -8 -15 -2 -15 12 0 26 19 19 26 -2 2 -10 -2 -17 -11z" fill="#fafafa"/>
<path d="M8218 2935 c-16 -18 -28 -42 -28 -54 0 -12 -8 -34 -17 -49 l-17 -27 22 19 c12 11 22 29 22 41 0 13 7 28 15 35 8 7 15 19 15 26 0 8 4 14 9 14 5 0 11 7 15 15 9 25 -7 16 -36 -20z" fill="#fafafa"/>
<path d="M6076 2941 c18 -11 35 -25 39 -31 14 -23 56 -31 86 -16 18 9 31 11 35 5 4 -6 11 -6 19 1 23 19 83 -5 150 -62 13 -10 30 -14 48 -11 29 6 37 23 10 23 -9 0 -24 6 -32 13 -9 8 -46 26 -83 42 -60 25 -74 27 -137 21 -59 -6 -76 -4 -110 13 -51 26 -66 27 -25 2z" fill="#fafafa"/>
<path d="M6032 2893 c-29 -4 -33 -7 -28 -26 3 -12 6 -26 6 -30 0 -5 9 -5 20 -2 25 8 27 -15 4 -50 -20 -31 -11 -59 16 -52 10 3 21 0 23 -7 3 -7 12 -4 26 8 11 11 21 14 21 9 0 -6 11 -10 25 -10 14 0 25 5 25 12 0 8 6 15 13 18 7 2 8 8 3 13 -5 5 -11 4 -13 -3 -9 -24 -25 -13 -19 12 3 14 9 37 12 52 7 25 5 26 -25 20 -26 -6 -31 -4 -31 13 0 11 -4 20 -9 20 -5 0 -15 2 -23 3 -7 2 -28 2 -46 0z m48 -49 c0 -8 -4 -12 -10 -9 -5 3 -10 10 -10 16 0 5 5 9 10 9 6 0 10 -7 10 -16z" fill="#fafafa"/>
<path d="M6225 2869 c-10 -15 3 -25 16 -12 7 7 7 13 1 17 -6 3 -14 1 -17 -5z" fill="#fafafa"/>
<path d="M6200 2836 c0 -2 7 -9 15 -16 13 -11 14 -10 9 4 -5 14 -24 23 -24 12z" fill="#fafafa"/>
<path d="M8068 2823 c-48 -7 -31 -18 27 -18 55 0 70 7 39 19 -16 6 -19 6 -66 -1z" fill="#fafafa"/>
<path d="M3497 2794 c-15 -8 -36 -14 -45 -13 -27 3 -73 -19 -94 -46 -10 -13 -31 -30 -46 -37 -25 -13 -34 -25 -66 -96 l-15 -32 30 20 c18 14 29 30 29 46 0 17 6 24 20 25 49 2 66 1 84 -6 14 -6 24 -2 38 18 11 15 24 27 28 27 17 0 60 48 60 67 0 10 5 24 12 31 16 16 -1 14 -35 -4z" fill="#fafafa"/>
<path d="M6233 2788 c-20 -26 -26 -41 -15 -34 12 7 36 46 29 46 -3 0 -9 -6 -14 -12z" fill="#fafafa"/>
<path d="M8382 2770 c0 -14 2 -19 5 -12 2 6 2 18 0 25 -3 6 -5 1 -5 -13z" fill="#fafafa"/>
<path d="M2350 2763 c0 -5 4 -15 10 -23 11 -18 25 -7 17 15 -6 15 -27 21 -27 8z" fill="#fafafa"/>
<path d="M3046 2666 l5 -31 -17 23 c-18 24 -44 28 -74 12 -14 -7 -19 -20 -18 -46 1 -19 5 -37 10 -40 15 -9 9 -37 -7 -31 -12 5 -12 2 -3 -18 6 -14 19 -27 30 -30 19 -7 22 -22 12 -49 -4 -12 -20 -16 -55 -16 -27 0 -49 -4 -49 -8 0 -8 -23 -10 -120 -12 -31 -1 -88 -19 -95 -30 -5 -8 45 -6 140 5 43 6 56 5 51 -4 -12 -18 150 -13 165 5 9 11 15 12 25 3 11 -9 18 -7 33 10 10 12 17 30 14 40 -2 9 3 23 11 30 9 8 16 29 16 51 0 25 5 40 15 44 16 6 54 -11 67 -29 5 -6 12 -5 20 3 9 9 9 12 -1 12 -24 0 -81 52 -81 74 0 37 -24 60 -63 61 -35 2 -36 0 -31 -29z m79 -67 c4 -5 -1 -9 -9 -9 -8 0 -22 -7 -31 -16 -9 -9 -19 -13 -23 -10 -3 4 0 11 7 15 10 7 10 13 2 29 -6 11 -11 23 -11 26 0 7 59 -24 65 -35z m-114 -12 c23 -18 31 -47 14 -47 -8 0 -15 7 -15 15 0 8 -7 15 -15 15 -8 0 -15 7 -15 15 0 18 10 19 31 2z" fill="#fafafa"/>
<path d="M8466 2664 c-4 -9 -4 -19 -1 -22 2 -3 7 3 11 12 4 9 4 19 1 22 -2 3 -7 -3 -11 -12z" fill="#fafafa"/>
<path d="M2250 2619 c0 -5 5 -7 10 -4 6 3 10 8 10 11 0 2 -4 4 -10 4 -5 0 -10 -5 -10 -11z" fill="#fafafa"/>
<path d="M8456 2448 c-10 -38 -7 -44 10 -19 11 15 13 26 6 33 -6 6 -11 1 -16 -14z" fill="#fafafa"/>
<path d="M3087 2377 c-8 -20 29 -29 44 -11 7 9 8 14 1 14 -6 0 -17 3 -25 6 -8 3 -17 -1 -20 -9z" fill="#fafafa"/>
<path d="M1565 2349 c46 -56 84 -153 99 -254 2 -16 3 4 2 45 -3 87 -30 157 -78 208 -41 41 -58 42 -23 1z" fill="#fafafa"/>
<path d="M2155 2202 c-24 -5 -45 -21 -45 -34 0 -5 6 -8 13 -5 6 2 11 10 9 17 -3 11 0 11 12 1 12 -10 86 -25 86 -17 0 11 -60 41 -75 38z" fill="#fafafa"/>
<path d="M1750 2051 c0 -6 5 -13 10 -16 6 -3 10 1 10 9 0 9 -4 16 -10 16 -5 0 -10 -4 -10 -9z" fill="#fafafa"/>
<path d="M1800 2020 c0 -5 4 -10 9 -10 6 0 13 5 16 10 3 6 -1 10 -9 10 -9 0 -16 -4 -16 -10z" fill="#fafafa"/>
</g>
</svg>